<svg width="385" height="116" fill="none" xmlns="http://www.w3.org/2000/svg"><rect width="385" height="116" rx="12" fill="#fff"/><rect x="29" y="38" width="83" height="40" rx="9" fill="#D9D9D9"/><path d="M51.54 59.216V63h-1.816v-8.727h1.765v3.336h.076c.148-.386.387-.689.716-.907.33-.222.743-.333 1.24-.333.455 0 .851.1 1.19.299.34.196.604.478.792.848.19.366.284.805.281 1.316V63H53.97v-3.844c.003-.403-.1-.717-.307-.941-.205-.225-.492-.337-.86-.337-.248 0-.467.052-.657.157a1.118 1.118 0 0 0-.443.46c-.105.2-.16.44-.162.72ZM57.213 63v-6.545h1.815V63h-1.815Zm.912-7.39a.986.986 0 0 1-.695-.268.87.87 0 0 1-.285-.652c0-.25.095-.464.285-.643a.978.978 0 0 1 .695-.273c.27 0 .5.091.69.273.193.179.29.393.29.643 0 .253-.097.47-.29.652a.972.972 0 0 1-.69.269Zm4.173 3.606V63h-1.816v-6.545h1.73v1.154h.077c.145-.38.388-.681.729-.903.34-.225.754-.337 1.24-.337.454 0 .85.1 1.189.299.338.199.6.483.788.852.188.366.281.804.281 1.312V63h-1.815v-3.844c.003-.4-.1-.713-.307-.937-.207-.227-.493-.341-.856-.341-.245 0-.46.052-.648.157-.185.106-.33.259-.435.46a1.594 1.594 0 0 0-.157.72Zm9.13-2.761v1.363h-3.941v-1.363h3.942Zm-3.046-1.569h1.815v6.103c0 .167.026.298.077.392.05.09.122.154.213.191a.877.877 0 0 0 .324.056c.085 0 .17-.007.255-.022l.196-.038.286 1.351c-.091.028-.219.061-.384.098a3.07 3.07 0 0 1-.6.072c-.438.017-.821-.04-1.151-.174a1.606 1.606 0 0 1-.763-.622c-.182-.282-.271-.637-.268-1.066v-6.34ZM77.61 63v1.376h-5.732V63h5.732Zm1.27 2.454v-9h1.79v1.1h.081c.08-.176.195-.355.346-.537.153-.185.352-.338.596-.46.247-.125.554-.188.92-.188.478 0 .918.125 1.322.375.403.248.725.621.967 1.121.242.497.362 1.12.362 1.87 0 .73-.118 1.347-.353 1.85-.233.5-.552.88-.955 1.138-.4.256-.85.383-1.347.383-.352 0-.652-.058-.899-.174a1.86 1.86 0 0 1-.6-.44 2.229 2.229 0 0 1-.359-.54h-.055v3.502h-1.815Zm1.778-5.727c0 .39.054.729.162 1.019.108.29.264.515.468.677.205.16.454.239.746.239.295 0 .545-.081.75-.243.205-.165.36-.392.465-.682a2.91 2.91 0 0 0 .162-1.01c0-.378-.053-.71-.158-.997a1.486 1.486 0 0 0-.465-.673 1.178 1.178 0 0 0-.754-.243c-.295 0-.545.078-.75.234a1.47 1.47 0 0 0-.464.665 2.876 2.876 0 0 0-.162 1.014Zm9.298-3.272v1.363h-3.942v-1.363h3.942Zm-3.047-1.569h1.815v6.103c0 .167.026.298.077.392.051.09.122.154.213.191a.878.878 0 0 0 .324.056c.085 0 .17-.007.256-.022l.196-.038.285 1.351c-.09.028-.219.061-.383.098-.165.04-.365.064-.601.072-.438.017-.821-.04-1.15-.174a1.606 1.606 0 0 1-.763-.622c-.182-.282-.272-.637-.269-1.066v-6.34Z" fill="#1E1313"/><rect x="151" y="38" width="83" height="40" rx="9" fill="#D9D9D9"/><path d="M172.724 63v-6.545h1.731v1.154h.076a1.82 1.82 0 0 1 .682-.907c.318-.222.699-.333 1.142-.333.449 0 .831.112 1.146.337.316.222.526.523.631.903h.068c.134-.375.375-.674.725-.899.352-.227.768-.34 1.248-.34.611 0 1.107.194 1.488.583.383.386.575.935.575 1.645V63h-1.811v-4.044c0-.364-.097-.636-.29-.818a1.016 1.016 0 0 0-.724-.273c-.33 0-.587.105-.772.315-.184.208-.277.482-.277.823V63h-1.76v-4.082c0-.321-.092-.577-.277-.767-.182-.19-.422-.286-.72-.286a.998.998 0 0 0-.545.154c-.159.099-.286.24-.38.421a1.35 1.35 0 0 0-.14.631V63h-1.816Zm10.946 0v-6.545h1.815V63h-1.815Zm.912-7.39a.987.987 0 0 1-.695-.268.871.871 0 0 1-.285-.652c0-.25.095-.464.285-.643a.978.978 0 0 1 .695-.273c.27 0 .5.091.69.273.193.179.29.393.29.643 0 .253-.097.47-.29.652a.97.97 0 0 1-.69.269Zm4.769 7.496c-.497 0-.947-.127-1.351-.383-.4-.258-.718-.638-.954-1.138-.233-.503-.35-1.12-.35-1.85 0-.75.121-1.373.363-1.87.241-.5.562-.873.963-1.12.403-.25.845-.376 1.325-.376.366 0 .672.063.916.188.247.122.446.275.597.46.153.182.27.36.349.537h.056v-3.281h1.811V63h-1.79v-1.048h-.077a2.34 2.34 0 0 1-.362.54 1.799 1.799 0 0 1-.601.44c-.244.116-.543.174-.895.174Zm.575-1.444c.293 0 .54-.08.742-.239a1.51 1.51 0 0 0 .469-.677c.111-.29.166-.63.166-1.019 0-.389-.054-.727-.162-1.014a1.453 1.453 0 0 0-.469-.665 1.19 1.19 0 0 0-.746-.234c-.298 0-.549.08-.754.243a1.488 1.488 0 0 0-.464.673c-.105.287-.158.62-.158.997 0 .381.053.718.158 1.01.108.29.263.517.464.682.205.162.456.243.754.243Zm7.054 1.444c-.497 0-.947-.127-1.351-.383-.4-.258-.718-.638-.954-1.138-.233-.503-.35-1.12-.35-1.85 0-.75.121-1.373.363-1.87.241-.5.562-.873.963-1.12.403-.25.845-.376 1.325-.376.366 0 .672.063.916.188.247.122.446.275.597.46.153.182.27.36.349.537h.055v-3.281h1.812V63h-1.79v-1.048h-.077a2.34 2.34 0 0 1-.362.54 1.81 1.81 0 0 1-.601.44c-.244.116-.543.174-.895.174Zm.575-1.444c.293 0 .54-.08.742-.239.204-.162.361-.388.469-.677.11-.29.166-.63.166-1.019 0-.389-.054-.727-.162-1.014a1.453 1.453 0 0 0-.469-.665 1.19 1.19 0 0 0-.746-.234c-.298 0-.549.08-.754.243a1.488 1.488 0 0 0-.464.673c-.105.287-.158.62-.158.997 0 .381.053.718.158 1.01.108.29.262.517.464.682.205.162.456.243.754.243Zm6.457-7.39V63h-1.815v-8.727h1.815Zm4.438 8.856c-.674 0-1.253-.136-1.739-.41a2.807 2.807 0 0 1-1.117-1.167c-.261-.506-.392-1.104-.392-1.794 0-.673.131-1.264.392-1.773.262-.508.63-.904 1.104-1.189.477-.284 1.037-.426 1.679-.426.432 0 .834.07 1.206.21.375.136.702.341.98.617.281.276.5.622.656 1.04.157.415.235.9.235 1.457v.499h-5.527v-1.125h3.818c0-.262-.057-.493-.17-.695a1.229 1.229 0 0 0-.473-.473 1.352 1.352 0 0 0-.695-.175c-.276 0-.52.064-.733.192-.21.125-.375.294-.494.507-.12.21-.181.445-.184.703v1.07c0 .324.06.604.179.84.123.235.294.417.516.545.222.128.484.192.788.192.202 0 .387-.029.554-.086.168-.056.311-.142.431-.255.119-.114.21-.253.273-.418l1.678.111a2.282 2.282 0 0 1-.524 1.057 2.626 2.626 0 0 1-1.014.699c-.412.164-.888.247-1.427.247Z" fill="#1E1313"/><rect x="273" y="38" width="83" height="40" rx="9" fill="#D9D9D9"/><path d="M305.54 59.216V63h-1.816v-8.727h1.765v3.336h.076c.148-.386.387-.689.716-.907.33-.222.743-.333 1.24-.333.455 0 .851.1 1.189.299.341.196.605.478.793.848.19.366.284.805.281 1.316V63h-1.815v-3.844c.003-.403-.1-.717-.307-.941-.205-.225-.492-.337-.861-.337-.247 0-.466.052-.656.157a1.114 1.114 0 0 0-.443.46 1.562 1.562 0 0 0-.162.72ZM311.213 63v-6.545h1.815V63h-1.815Zm.912-7.39a.987.987 0 0 1-.695-.268.871.871 0 0 1-.285-.652c0-.25.095-.464.285-.643a.978.978 0 0 1 .695-.273c.27 0 .5.091.69.273.193.179.29.393.29.643 0 .253-.097.47-.29.652a.97.97 0 0 1-.69.269Zm4.173 3.606V63h-1.816v-6.545h1.73v1.154h.077c.145-.38.388-.681.729-.903.341-.225.754-.337 1.24-.337.454 0 .851.1 1.189.299.338.199.601.483.788.852.188.366.281.804.281 1.312V63h-1.815v-3.844c.003-.4-.099-.713-.307-.937-.207-.227-.493-.341-.856-.341a1.3 1.3 0 0 0-.648.157c-.185.106-.33.259-.435.46a1.588 1.588 0 0 0-.157.72Zm9.131-2.761v1.363h-3.942v-1.363h3.942Zm-3.047-1.569h1.815v6.103a.83.83 0 0 0 .077.392c.051.09.122.154.213.191a.88.88 0 0 0 .324.056c.085 0 .17-.007.255-.022l.196-.038.286 1.351a5.103 5.103 0 0 1-.384.098c-.164.04-.365.064-.6.072-.438.017-.821-.04-1.151-.174a1.606 1.606 0 0 1-.763-.622c-.182-.282-.271-.637-.268-1.066v-6.34Z" fill="#1E1313"/><path d="M152.061 59.06a1.502 1.502 0 0 0 0-2.12l-9.546-9.547a1.5 1.5 0 0 0-2.122 2.122L148.879 58l-8.486 8.485a1.501 1.501 0 0 0 2.122 2.122l9.546-9.546ZM112 59.5h39v-3h-39v3Z" fill="red"/><path d="m116.369 53.117.005-2.178h.264l2.096-2.484h2.084l-2.817 3.29h-.43l-1.202 1.372ZM114.724 55v-8.727h1.816V55h-1.816Zm4.091 0-1.926-2.85 1.21-1.283L120.942 55h-2.127Zm5.607.128c-.673 0-1.253-.136-1.738-.41a2.8 2.8 0 0 1-1.117-1.167c-.261-.506-.392-1.104-.392-1.794 0-.673.131-1.264.392-1.773a2.892 2.892 0 0 1 1.104-1.189c.477-.284 1.037-.426 1.679-.426.432 0 .834.07 1.206.21.375.136.701.341.98.617.281.276.5.622.656 1.04.156.415.234.9.234 1.457v.499H121.9v-1.125h3.818c0-.262-.057-.493-.171-.695a1.215 1.215 0 0 0-.473-.473 1.348 1.348 0 0 0-.694-.175c-.276 0-.52.064-.733.192a1.345 1.345 0 0 0-.495.507c-.119.21-.18.445-.183.703v1.07c0 .324.06.604.179.84.122.235.294.417.516.545.221.128.484.192.788.192.202 0 .386-.029.554-.086a1.098 1.098 0 0 0 .703-.673l1.679.111c-.085.403-.26.756-.524 1.057a2.626 2.626 0 0 1-1.014.699c-.412.164-.888.247-1.428.247Zm5.134 2.327c-.23 0-.446-.019-.648-.056a2.368 2.368 0 0 1-.494-.132l.409-1.355c.213.065.405.1.575.107a.731.731 0 0 0 .448-.12c.128-.085.231-.23.311-.434l.106-.278-2.348-6.732h1.91l1.355 4.806h.068l1.368-4.806h1.922l-2.544 7.252c-.123.353-.289.66-.499.92a2.04 2.04 0 0 1-.788.61c-.319.145-.702.218-1.151.218Zm9.69-11.182V55h-1.845v-6.976h-.051l-1.998 1.253v-1.636l2.16-1.368h1.734Z" fill="url(#a)"/><path d="M232.939 56.94a1.502 1.502 0 0 0 0 2.12l9.546 9.547a1.5 1.5 0 0 0 2.122-2.122L236.121 58l8.486-8.485a1.501 1.501 0 0 0-2.122-2.122l-9.546 9.546ZM273 56.5h-39v3h39v-3Z" fill="#00E6E6"/><path d="m247.369 53.117.005-2.178h.264l2.096-2.484h2.084l-2.817 3.29h-.43l-1.202 1.372ZM245.724 55v-8.727h1.816V55h-1.816Zm4.091 0-1.926-2.85 1.21-1.283L251.942 55h-2.127Zm5.607.128c-.673 0-1.253-.136-1.738-.41a2.8 2.8 0 0 1-1.117-1.167c-.261-.506-.392-1.104-.392-1.794 0-.673.131-1.264.392-1.773a2.892 2.892 0 0 1 1.104-1.189c.477-.284 1.037-.426 1.679-.426.432 0 .834.07 1.206.21.375.136.701.341.98.617.281.276.5.622.656 1.04.156.415.234.9.234 1.457v.499H252.9v-1.125h3.818c0-.262-.057-.493-.171-.695a1.215 1.215 0 0 0-.473-.473 1.348 1.348 0 0 0-.694-.175c-.276 0-.52.064-.733.192a1.345 1.345 0 0 0-.495.507c-.119.21-.18.445-.183.703v1.07c0 .324.06.604.179.84.122.235.294.417.516.545.221.128.484.192.788.192.202 0 .386-.029.554-.086a1.098 1.098 0 0 0 .703-.673l1.679.111c-.085.403-.26.756-.524 1.057a2.626 2.626 0 0 1-1.014.699c-.412.164-.888.247-1.428.247Zm5.134 2.327c-.23 0-.446-.019-.648-.056a2.368 2.368 0 0 1-.494-.132l.409-1.355c.213.065.405.1.575.107a.731.731 0 0 0 .448-.12c.128-.085.231-.23.311-.434l.106-.278-2.348-6.732h1.91l1.355 4.806h.068l1.368-4.806h1.922l-2.544 7.252c-.123.353-.289.66-.499.92a2.04 2.04 0 0 1-.788.61c-.319.145-.702.218-1.151.218ZM266.45 55v-1.33l3.106-2.876c.264-.256.486-.486.665-.69.182-.205.319-.405.413-.601.094-.199.141-.413.141-.644 0-.255-.058-.476-.175-.66a1.141 1.141 0 0 0-.477-.43 1.498 1.498 0 0 0-.686-.154c-.267 0-.5.054-.699.162a1.115 1.115 0 0 0-.46.465 1.505 1.505 0 0 0-.162.72h-1.752c0-.571.13-1.067.388-1.488.259-.42.621-.745 1.087-.975.466-.23 1.003-.346 1.611-.346.625 0 1.169.111 1.632.333.466.219.828.523 1.086.912.259.389.388.835.388 1.338 0 .33-.065.655-.196.976-.128.32-.356.677-.686 1.07-.33.389-.794.856-1.393 1.401l-1.275 1.249v.06h3.665V55h-6.221Z" fill="gold"/><defs><linearGradient id="a" x1="127.5" y1="43" x2="127.5" y2="58" gradientUnits="userSpaceOnUse"><stop stop-color="gold"/><stop offset="1" stop-color="red" stop-opacity="0"/></linearGradient></defs></svg>