<svg width="385" height="116" viewBox="0 0 385 116" fill="none" xmlns="http://www.w3.org/2000/svg">
<rect width="385" height="116" rx="12" fill="white"/>
<rect x="29" y="38" width="83" height="40" rx="9" fill="#D9D9D9"/>
<path d="M51.5398 59.2159V63H49.7244V54.2727H51.4886V57.6094H51.5653C51.7131 57.223 51.9517 56.9205 52.2812 56.7017C52.6108 56.4801 53.0241 56.3693 53.5213 56.3693C53.9759 56.3693 54.3722 56.4688 54.7102 56.6676C55.0511 56.8636 55.3153 57.1463 55.5028 57.5156C55.6932 57.8821 55.7869 58.321 55.7841 58.8324V63H53.9688V59.1562C53.9716 58.7528 53.8693 58.4389 53.6619 58.2145C53.4574 57.9901 53.1705 57.8778 52.8011 57.8778C52.554 57.8778 52.3352 57.9304 52.1449 58.0355C51.9574 58.1406 51.8097 58.294 51.7017 58.4957C51.5966 58.6946 51.5426 58.9347 51.5398 59.2159ZM57.2127 63V56.4545H59.0281V63H57.2127ZM58.1246 55.6108C57.8548 55.6108 57.6232 55.5213 57.43 55.3423C57.2397 55.1605 57.1445 54.9432 57.1445 54.6903C57.1445 54.4403 57.2397 54.2259 57.43 54.0469C57.6232 53.8651 57.8548 53.7741 58.1246 53.7741C58.3945 53.7741 58.6246 53.8651 58.815 54.0469C59.0082 54.2259 59.1048 54.4403 59.1048 54.6903C59.1048 54.9432 59.0082 55.1605 58.815 55.3423C58.6246 55.5213 58.3945 55.6108 58.1246 55.6108ZM62.2976 59.2159V63H60.4822V56.4545H62.2124V57.6094H62.2891C62.4339 57.2287 62.6768 56.9276 63.0178 56.706C63.3587 56.4815 63.772 56.3693 64.2578 56.3693C64.7124 56.3693 65.1087 56.4688 65.4467 56.6676C65.7848 56.8665 66.0476 57.1506 66.2351 57.5199C66.4226 57.8864 66.5163 58.3239 66.5163 58.8324V63H64.701V59.1562C64.7038 58.7557 64.6016 58.4432 64.3942 58.2188C64.1868 57.9915 63.9013 57.8778 63.5376 57.8778C63.2933 57.8778 63.0774 57.9304 62.8899 58.0355C62.7053 58.1406 62.5604 58.294 62.4553 58.4957C62.353 58.6946 62.3004 58.9347 62.2976 59.2159ZM71.4286 56.4545V57.8182H67.4869V56.4545H71.4286ZM68.3817 54.8864H70.1971V60.9886C70.1971 61.1562 70.2227 61.2869 70.2738 61.3807C70.3249 61.4716 70.396 61.5355 70.4869 61.5724C70.5806 61.6094 70.6886 61.6278 70.8107 61.6278C70.896 61.6278 70.9812 61.6207 71.0664 61.6065C71.1516 61.5895 71.217 61.5767 71.2624 61.5682L71.5479 62.919C71.457 62.9474 71.3292 62.9801 71.1644 63.017C70.9996 63.0568 70.7994 63.081 70.5636 63.0895C70.1261 63.1065 69.7425 63.0483 69.413 62.9148C69.0863 62.7812 68.832 62.5739 68.6502 62.2926C68.4684 62.0114 68.3789 61.6562 68.3817 61.2273V54.8864ZM77.6097 63V64.3764H71.8782V63H77.6097ZM78.8807 65.4545V56.4545H80.6705V57.554H80.7514C80.831 57.3778 80.946 57.1989 81.0966 57.017C81.25 56.8324 81.4489 56.679 81.6932 56.5568C81.9403 56.4318 82.2472 56.3693 82.6136 56.3693C83.0909 56.3693 83.5313 56.4943 83.9347 56.7443C84.3381 56.9915 84.6605 57.3651 84.902 57.8651C85.1435 58.3622 85.2642 58.9858 85.2642 59.7358C85.2642 60.4659 85.1463 61.0824 84.9105 61.5852C84.6776 62.0852 84.3594 62.4645 83.956 62.723C83.5554 62.9787 83.1065 63.1065 82.6094 63.1065C82.2571 63.1065 81.9574 63.0483 81.7102 62.9318C81.4659 62.8153 81.2656 62.669 81.1094 62.4929C80.9531 62.3139 80.8338 62.1335 80.7514 61.9517H80.696V65.4545H78.8807ZM80.6577 59.7273C80.6577 60.1165 80.7116 60.456 80.8196 60.7457C80.9276 61.0355 81.0838 61.2614 81.2884 61.4233C81.4929 61.5824 81.7415 61.6619 82.0341 61.6619C82.3295 61.6619 82.5795 61.581 82.7841 61.419C82.9886 61.2543 83.1435 61.027 83.2486 60.7372C83.3565 60.4446 83.4105 60.108 83.4105 59.7273C83.4105 59.3494 83.358 59.017 83.2528 58.7301C83.1477 58.4432 82.9929 58.2187 82.7884 58.0568C82.5838 57.8949 82.3324 57.8139 82.0341 57.8139C81.7386 57.8139 81.4886 57.892 81.2841 58.0483C81.0824 58.2045 80.9276 58.4261 80.8196 58.7131C80.7116 59 80.6577 59.3381 80.6577 59.7273ZM89.956 56.4545V57.8182H86.0142V56.4545H89.956ZM86.9091 54.8864H88.7244V60.9886C88.7244 61.1562 88.75 61.2869 88.8011 61.3807C88.8523 61.4716 88.9233 61.5355 89.0142 61.5724C89.108 61.6094 89.2159 61.6278 89.3381 61.6278C89.4233 61.6278 89.5085 61.6207 89.5938 61.6065C89.679 61.5895 89.7443 61.5767 89.7898 61.5682L90.0753 62.919C89.9844 62.9474 89.8565 62.9801 89.6918 63.017C89.527 63.0568 89.3267 63.081 89.0909 63.0895C88.6534 63.1065 88.2699 63.0483 87.9403 62.9148C87.6136 62.7812 87.3594 62.5739 87.1776 62.2926C86.9957 62.0114 86.9063 61.6562 86.9091 61.2273V54.8864Z" fill="#1E1313"/>
<rect x="151" y="38" width="83" height="40" rx="9" fill="#D9D9D9"/>
<path d="M172.724 63V56.4545H174.455V57.6094H174.531C174.668 57.2259 174.895 56.9233 175.213 56.7017C175.531 56.4801 175.912 56.3693 176.355 56.3693C176.804 56.3693 177.186 56.4815 177.501 56.706C177.817 56.9276 178.027 57.2287 178.132 57.6094H178.2C178.334 57.2344 178.575 56.9347 178.925 56.7102C179.277 56.483 179.693 56.3693 180.173 56.3693C180.784 56.3693 181.28 56.5639 181.661 56.9531C182.044 57.3395 182.236 57.8878 182.236 58.598V63H180.425V58.956C180.425 58.5923 180.328 58.3196 180.135 58.1378C179.942 57.956 179.7 57.8651 179.411 57.8651C179.081 57.8651 178.824 57.9702 178.639 58.1804C178.455 58.3878 178.362 58.6619 178.362 59.0028V63H176.602V58.9176C176.602 58.5966 176.51 58.3409 176.325 58.1506C176.143 57.9602 175.903 57.8651 175.605 57.8651C175.403 57.8651 175.222 57.9162 175.06 58.0185C174.901 58.1179 174.774 58.2585 174.68 58.4403C174.587 58.6193 174.54 58.8295 174.54 59.071V63H172.724ZM183.67 63V56.4545H185.485V63H183.67ZM184.582 55.6108C184.312 55.6108 184.08 55.5213 183.887 55.3423C183.697 55.1605 183.602 54.9432 183.602 54.6903C183.602 54.4403 183.697 54.2259 183.887 54.0469C184.08 53.8651 184.312 53.7741 184.582 53.7741C184.852 53.7741 185.082 53.8651 185.272 54.0469C185.465 54.2259 185.562 54.4403 185.562 54.6903C185.562 54.9432 185.465 55.1605 185.272 55.3423C185.082 55.5213 184.852 55.6108 184.582 55.6108ZM189.351 63.1065C188.854 63.1065 188.404 62.9787 188 62.723C187.6 62.4645 187.282 62.0852 187.046 61.5852C186.813 61.0824 186.696 60.4659 186.696 59.7358C186.696 58.9858 186.817 58.3622 187.059 57.8651C187.3 57.3651 187.621 56.9915 188.022 56.7443C188.425 56.4943 188.867 56.3693 189.347 56.3693C189.713 56.3693 190.019 56.4318 190.263 56.5568C190.51 56.679 190.709 56.8324 190.86 57.017C191.013 57.1989 191.13 57.3778 191.209 57.554H191.265V54.2727H193.076V63H191.286V61.9517H191.209C191.124 62.1335 191.003 62.3139 190.847 62.4929C190.694 62.669 190.493 62.8153 190.246 62.9318C190.002 63.0483 189.703 63.1065 189.351 63.1065ZM189.926 61.6619C190.219 61.6619 190.466 61.5824 190.668 61.4233C190.873 61.2614 191.029 61.0355 191.137 60.7457C191.248 60.456 191.303 60.1165 191.303 59.7273C191.303 59.3381 191.249 59 191.141 58.7131C191.033 58.4261 190.877 58.2045 190.672 58.0483C190.468 57.892 190.219 57.8139 189.926 57.8139C189.628 57.8139 189.377 57.8949 189.172 58.0568C188.968 58.2187 188.813 58.4432 188.708 58.7301C188.603 59.017 188.55 59.3494 188.55 59.7273C188.55 60.108 188.603 60.4446 188.708 60.7372C188.816 61.027 188.971 61.2543 189.172 61.419C189.377 61.581 189.628 61.6619 189.926 61.6619ZM196.98 63.1065C196.483 63.1065 196.033 62.9787 195.629 62.723C195.229 62.4645 194.911 62.0852 194.675 61.5852C194.442 61.0824 194.325 60.4659 194.325 59.7358C194.325 58.9858 194.446 58.3622 194.688 57.8651C194.929 57.3651 195.25 56.9915 195.651 56.7443C196.054 56.4943 196.496 56.3693 196.976 56.3693C197.342 56.3693 197.648 56.4318 197.892 56.5568C198.139 56.679 198.338 56.8324 198.489 57.017C198.642 57.1989 198.759 57.3778 198.838 57.554H198.893V54.2727H200.705V63H198.915V61.9517H198.838C198.753 62.1335 198.632 62.3139 198.476 62.4929C198.322 62.669 198.122 62.8153 197.875 62.9318C197.631 63.0483 197.332 63.1065 196.98 63.1065ZM197.555 61.6619C197.848 61.6619 198.095 61.5824 198.297 61.4233C198.501 61.2614 198.658 61.0355 198.766 60.7457C198.876 60.456 198.932 60.1165 198.932 59.7273C198.932 59.3381 198.878 59 198.77 58.7131C198.662 58.4261 198.506 58.2045 198.301 58.0483C198.097 57.892 197.848 57.8139 197.555 57.8139C197.257 57.8139 197.006 57.8949 196.801 58.0568C196.597 58.2187 196.442 58.4432 196.337 58.7301C196.232 59.017 196.179 59.3494 196.179 59.7273C196.179 60.108 196.232 60.4446 196.337 60.7372C196.445 61.027 196.599 61.2543 196.801 61.419C197.006 61.581 197.257 61.6619 197.555 61.6619ZM204.012 54.2727V63H202.197V54.2727H204.012ZM208.45 63.1278C207.776 63.1278 207.197 62.9915 206.711 62.7188C206.228 62.4432 205.856 62.054 205.594 61.5511C205.333 61.0455 205.202 60.4474 205.202 59.7571C205.202 59.0838 205.333 58.4929 205.594 57.9844C205.856 57.4759 206.224 57.0795 206.698 56.7955C207.175 56.5114 207.735 56.3693 208.377 56.3693C208.809 56.3693 209.211 56.4389 209.583 56.5781C209.958 56.7145 210.285 56.9205 210.563 57.196C210.844 57.4716 211.063 57.8182 211.219 58.2358C211.376 58.6506 211.454 59.1364 211.454 59.6932V60.1918H205.927V59.0668H209.745C209.745 58.8054 209.688 58.5739 209.575 58.3722C209.461 58.1705 209.303 58.0128 209.102 57.8991C208.903 57.7827 208.671 57.7244 208.407 57.7244C208.131 57.7244 207.887 57.7884 207.674 57.9162C207.464 58.0412 207.299 58.2102 207.18 58.4233C207.06 58.6335 206.999 58.8679 206.996 59.1264V60.196C206.996 60.5199 207.056 60.7997 207.175 61.0355C207.298 61.2713 207.469 61.4531 207.691 61.581C207.913 61.7088 208.175 61.7727 208.479 61.7727C208.681 61.7727 208.866 61.7443 209.033 61.6875C209.201 61.6307 209.344 61.5455 209.464 61.4318C209.583 61.3182 209.674 61.179 209.737 61.0142L211.415 61.125C211.33 61.5284 211.156 61.8807 210.891 62.1818C210.63 62.4801 210.292 62.7131 209.877 62.8807C209.465 63.0455 208.989 63.1278 208.45 63.1278Z" fill="#1E1313"/>
<rect x="273" y="38" width="83" height="40" rx="9" fill="#D9D9D9"/>
<path d="M305.54 59.2159V63H303.724V54.2727H305.489V57.6094H305.565C305.713 57.223 305.952 56.9205 306.281 56.7017C306.611 56.4801 307.024 56.3693 307.521 56.3693C307.976 56.3693 308.372 56.4688 308.71 56.6676C309.051 56.8636 309.315 57.1463 309.503 57.5156C309.693 57.8821 309.787 58.321 309.784 58.8324V63H307.969V59.1562C307.972 58.7528 307.869 58.4389 307.662 58.2145C307.457 57.9901 307.17 57.8778 306.801 57.8778C306.554 57.8778 306.335 57.9304 306.145 58.0355C305.957 58.1406 305.81 58.294 305.702 58.4957C305.597 58.6946 305.543 58.9347 305.54 59.2159ZM311.213 63V56.4545H313.028V63H311.213ZM312.125 55.6108C311.855 55.6108 311.623 55.5213 311.43 55.3423C311.24 55.1605 311.145 54.9432 311.145 54.6903C311.145 54.4403 311.24 54.2259 311.43 54.0469C311.623 53.8651 311.855 53.7741 312.125 53.7741C312.395 53.7741 312.625 53.8651 312.815 54.0469C313.008 54.2259 313.105 54.4403 313.105 54.6903C313.105 54.9432 313.008 55.1605 312.815 55.3423C312.625 55.5213 312.395 55.6108 312.125 55.6108ZM316.298 59.2159V63H314.482V56.4545H316.212V57.6094H316.289C316.434 57.2287 316.677 56.9276 317.018 56.706C317.359 56.4815 317.772 56.3693 318.258 56.3693C318.712 56.3693 319.109 56.4688 319.447 56.6676C319.785 56.8665 320.048 57.1506 320.235 57.5199C320.423 57.8864 320.516 58.3239 320.516 58.8324V63H318.701V59.1562C318.704 58.7557 318.602 58.4432 318.394 58.2188C318.187 57.9915 317.901 57.8778 317.538 57.8778C317.293 57.8778 317.077 57.9304 316.89 58.0355C316.705 58.1406 316.56 58.294 316.455 58.4957C316.353 58.6946 316.3 58.9347 316.298 59.2159ZM325.429 56.4545V57.8182H321.487V56.4545H325.429ZM322.382 54.8864H324.197V60.9886C324.197 61.1562 324.223 61.2869 324.274 61.3807C324.325 61.4716 324.396 61.5355 324.487 61.5724C324.581 61.6094 324.689 61.6278 324.811 61.6278C324.896 61.6278 324.981 61.6207 325.066 61.6065C325.152 61.5895 325.217 61.5767 325.262 61.5682L325.548 62.919C325.457 62.9474 325.329 62.9801 325.164 63.017C325 63.0568 324.799 63.081 324.564 63.0895C324.126 63.1065 323.743 63.0483 323.413 62.9148C323.086 62.7812 322.832 62.5739 322.65 62.2926C322.468 62.0114 322.379 61.6562 322.382 61.2273V54.8864Z" fill="#1E1313"/>
<path d="M152.061 59.0607C152.646 58.4749 152.646 57.5251 152.061 56.9393L142.515 47.3934C141.929 46.8076 140.979 46.8076 140.393 47.3934C139.808 47.9792 139.808 48.9289 140.393 49.5147L148.879 58L140.393 66.4853C139.808 67.0711 139.808 68.0208 140.393 68.6066C140.979 69.1924 141.929 69.1924 142.515 68.6066L152.061 59.0607ZM112 59.5H151V56.5H112V59.5Z" fill="#FF0000"/>
<path d="M116.369 53.1165L116.374 50.9389H116.638L118.734 48.4545H120.818L118.001 51.7443H117.571L116.369 53.1165ZM114.724 55V46.2727H116.54V55H114.724ZM118.815 55L116.889 52.1491L118.099 50.8665L120.942 55H118.815ZM124.422 55.1278C123.749 55.1278 123.169 54.9915 122.684 54.7188C122.201 54.4432 121.828 54.054 121.567 53.5511C121.306 53.0455 121.175 52.4474 121.175 51.7571C121.175 51.0838 121.306 50.4929 121.567 49.9844C121.828 49.4759 122.196 49.0795 122.671 48.7955C123.148 48.5114 123.708 48.3693 124.35 48.3693C124.782 48.3693 125.184 48.4389 125.556 48.5781C125.931 48.7145 126.257 48.9205 126.536 49.196C126.817 49.4716 127.036 49.8182 127.192 50.2358C127.348 50.6506 127.426 51.1364 127.426 51.6932V52.1918H121.9V51.0668H125.718C125.718 50.8054 125.661 50.5739 125.547 50.3722C125.434 50.1705 125.276 50.0128 125.074 49.8991C124.875 49.7827 124.644 49.7244 124.38 49.7244C124.104 49.7244 123.86 49.7884 123.647 49.9162C123.436 50.0412 123.272 50.2102 123.152 50.4233C123.033 50.6335 122.972 50.8679 122.969 51.1264V52.196C122.969 52.5199 123.029 52.7997 123.148 53.0355C123.27 53.2713 123.442 53.4531 123.664 53.581C123.885 53.7088 124.148 53.7727 124.452 53.7727C124.654 53.7727 124.838 53.7443 125.006 53.6875C125.174 53.6307 125.317 53.5455 125.436 53.4318C125.556 53.3182 125.647 53.179 125.709 53.0142L127.388 53.125C127.303 53.5284 127.128 53.8807 126.864 54.1818C126.603 54.4801 126.265 54.7131 125.85 54.8807C125.438 55.0455 124.962 55.1278 124.422 55.1278ZM129.556 57.4545C129.326 57.4545 129.11 57.4361 128.908 57.3991C128.71 57.3651 128.545 57.321 128.414 57.267L128.823 55.9119C129.036 55.9773 129.228 56.0128 129.398 56.0185C129.572 56.0241 129.721 55.9844 129.846 55.8991C129.974 55.8139 130.077 55.669 130.157 55.4645L130.263 55.1875L127.915 48.4545H129.825L131.18 53.2614H131.248L132.616 48.4545H134.538L131.994 55.7074C131.871 56.0597 131.705 56.3665 131.495 56.6278C131.288 56.892 131.025 57.0952 130.707 57.2372C130.388 57.3821 130.005 57.4545 129.556 57.4545ZM139.246 46.2727V55H137.401V48.0241H137.35L135.352 49.277V47.6406L137.512 46.2727H139.246Z" fill="url(#paint0_linear_1_23)"/>
<path d="M232.939 56.9393C232.354 57.5251 232.354 58.4749 232.939 59.0607L242.485 68.6066C243.071 69.1924 244.021 69.1924 244.607 68.6066C245.192 68.0208 245.192 67.0711 244.607 66.4853L236.121 58L244.607 49.5147C245.192 48.9289 245.192 47.9792 244.607 47.3934C244.021 46.8076 243.071 46.8076 242.485 47.3934L232.939 56.9393ZM273 56.5L234 56.5V59.5L273 59.5V56.5Z" fill="#00E6E6"/>
<path d="M247.369 53.1165L247.374 50.9389H247.638L249.734 48.4545H251.818L249.001 51.7443H248.571L247.369 53.1165ZM245.724 55V46.2727H247.54V55H245.724ZM249.815 55L247.889 52.1491L249.099 50.8665L251.942 55H249.815ZM255.422 55.1278C254.749 55.1278 254.169 54.9915 253.684 54.7188C253.201 54.4432 252.828 54.054 252.567 53.5511C252.306 53.0455 252.175 52.4474 252.175 51.7571C252.175 51.0838 252.306 50.4929 252.567 49.9844C252.828 49.4759 253.196 49.0795 253.671 48.7955C254.148 48.5114 254.708 48.3693 255.35 48.3693C255.782 48.3693 256.184 48.4389 256.556 48.5781C256.931 48.7145 257.257 48.9205 257.536 49.196C257.817 49.4716 258.036 49.8182 258.192 50.2358C258.348 50.6506 258.426 51.1364 258.426 51.6932V52.1918H252.9V51.0668H256.718C256.718 50.8054 256.661 50.5739 256.547 50.3722C256.434 50.1705 256.276 50.0128 256.074 49.8991C255.875 49.7827 255.644 49.7244 255.38 49.7244C255.104 49.7244 254.86 49.7884 254.647 49.9162C254.436 50.0412 254.272 50.2102 254.152 50.4233C254.033 50.6335 253.972 50.8679 253.969 51.1264V52.196C253.969 52.5199 254.029 52.7997 254.148 53.0355C254.27 53.2713 254.442 53.4531 254.664 53.581C254.885 53.7088 255.148 53.7727 255.452 53.7727C255.654 53.7727 255.838 53.7443 256.006 53.6875C256.174 53.6307 256.317 53.5455 256.436 53.4318C256.556 53.3182 256.647 53.179 256.709 53.0142L258.388 53.125C258.303 53.5284 258.128 53.8807 257.864 54.1818C257.603 54.4801 257.265 54.7131 256.85 54.8807C256.438 55.0455 255.962 55.1278 255.422 55.1278ZM260.556 57.4545C260.326 57.4545 260.11 57.4361 259.908 57.3991C259.71 57.3651 259.545 57.321 259.414 57.267L259.823 55.9119C260.036 55.9773 260.228 56.0128 260.398 56.0185C260.572 56.0241 260.721 55.9844 260.846 55.8991C260.974 55.8139 261.077 55.669 261.157 55.4645L261.263 55.1875L258.915 48.4545H260.825L262.18 53.2614H262.248L263.616 48.4545H265.538L262.994 55.7074C262.871 56.0597 262.705 56.3665 262.495 56.6278C262.288 56.892 262.025 57.0952 261.707 57.2372C261.388 57.3821 261.005 57.4545 260.556 57.4545ZM266.45 55V53.6705L269.556 50.794C269.82 50.5384 270.042 50.3082 270.221 50.1037C270.403 49.8991 270.54 49.6989 270.634 49.5028C270.728 49.304 270.775 49.0895 270.775 48.8594C270.775 48.6037 270.717 48.3835 270.6 48.1989C270.484 48.0114 270.325 47.8679 270.123 47.7685C269.921 47.6662 269.692 47.6151 269.437 47.6151C269.17 47.6151 268.937 47.669 268.738 47.777C268.539 47.8849 268.386 48.0398 268.278 48.2415C268.17 48.4432 268.116 48.6832 268.116 48.9616H266.364C266.364 48.3906 266.494 47.8949 266.752 47.4744C267.011 47.054 267.373 46.7287 267.839 46.4986C268.305 46.2685 268.842 46.1534 269.45 46.1534C270.075 46.1534 270.619 46.2642 271.082 46.4858C271.548 46.7045 271.91 47.0085 272.168 47.3977C272.427 47.7869 272.556 48.233 272.556 48.7358C272.556 49.0653 272.491 49.3906 272.36 49.7116C272.232 50.0327 272.004 50.3892 271.674 50.7812C271.344 51.1705 270.88 51.6378 270.281 52.1832L269.006 53.4318V53.4915H272.671V55H266.45Z" fill="#FFD700"/>
<defs>
<linearGradient id="paint0_linear_1_23" x1="127.5" y1="43" x2="127.5" y2="58" gradientUnits="userSpaceOnUse">
<stop stop-color="#FFD700"/>
<stop offset="1" stop-color="#FF0000" stop-opacity="0"/>
</linearGradient>
</defs>
</svg>
